<svg width="18" height="22" viewBox="0 0 18 22" fill="none" xmlns="http://www.w3.org/2000/svg">
<path d="M16.9718 4.81691L16.2802 5.10701H16.2802L16.9718 4.81691ZM16.357 5.29011C16.5172 5.67208 16.9568 5.85184 17.3388 5.69162C17.7207 5.5314 17.9005 5.09187 17.7403 4.70989L16.357 5.29011ZM13.7785 0.803643C13.394 0.649807 12.9575 0.836869 12.8036 1.22146C12.6498 1.60604 12.8369 2.04252 13.2215 2.19636L13.7785 0.803643ZM13.6672 1.56689L13.3887 2.26325L13.6672 1.56689ZM1.0768 4.81691L1.76842 5.10701L1.0768 4.81691ZM0.30838 4.70989C0.148159 5.09187 0.327923 5.5314 0.709894 5.69162C1.09187 5.85184 1.5314 5.67208 1.69162 5.29011L0.30838 4.70989ZM4.82719 2.19636C5.21178 2.04252 5.39884 1.60604 5.245 1.22146C5.09117 0.836869 4.65469 0.649807 4.2701 0.803642L4.82719 2.19636ZM4.38142 1.56689L4.10288 0.870532L4.10288 0.870532L4.38142 1.56689ZM15.2395 7.97519L14.4943 8.05977L15.2395 7.97519ZM15.6867 11.9153L16.4319 11.8307V11.8307L15.6867 11.9153ZM2.31328 11.9153L1.56806 11.8307L1.56806 11.8307L2.31328 11.9153ZM2.76046 7.97519L3.50568 8.05977L2.76046 7.97519ZM1.44779 13.8721L0.876678 13.386H0.876678L1.44779 13.8721ZM16.5522 13.8721L15.9811 14.3583L16.5522 13.8721ZM11.2699 3.37366H10.5199C10.5199 3.69424 10.7237 3.97938 11.027 4.08322L11.2699 3.37366ZM6.73005 3.37366L6.973 4.08322C7.2763 3.97938 7.48005 3.69424 7.48005 3.37366H6.73005ZM12.7023 19.2632C12.8477 18.8753 12.6511 18.4431 12.2632 18.2977C11.8753 18.1523 11.4431 18.3489 11.2977 18.7368L12.7023 19.2632ZM6.7023 18.7368C6.55694 18.3489 6.12467 18.1523 5.7368 18.2977C5.34893 18.4431 5.15234 18.8753 5.2977 19.2632L6.7023 18.7368ZM16.2802 5.10701L16.357 5.29011L17.7403 4.70989L17.6635 4.5268L16.2802 5.10701ZM13.2215 2.19636L13.3887 2.26325L13.9458 0.870533L13.7785 0.803643L13.2215 2.19636ZM17.6635 4.5268C16.964 2.85927 15.6247 1.54211 13.9458 0.870532L13.3887 2.26325C14.6945 2.78559 15.7362 3.81004 16.2802 5.10701L17.6635 4.5268ZM0.38518 4.5268L0.30838 4.70989L1.69162 5.29011L1.76842 5.10701L0.38518 4.5268ZM4.2701 0.803642L4.10288 0.870532L4.65996 2.26325L4.82719 2.19636L4.2701 0.803642ZM1.76842 5.10701C2.31244 3.81004 3.35411 2.78559 4.65996 2.26325L4.10288 0.870532C2.42393 1.54211 1.08464 2.85927 0.38518 4.5268L1.76842 5.10701ZM14.7772 16.25H3.22281V17.75H14.7772V16.25ZM14.4943 8.05977L14.9415 11.9998L16.4319 11.8307L15.9848 7.89061L14.4943 8.05977ZM3.05849 11.9998L3.50568 8.05977L2.01525 7.89061L1.56806 11.8307L3.05849 11.9998ZM2.01889 14.3583C2.59621 13.6801 2.96028 12.8652 3.05849 11.9998L1.56806 11.8307C1.50519 12.3846 1.27067 12.9231 0.876678 13.386L2.01889 14.3583ZM14.9415 11.9998C15.0397 12.8652 15.4038 13.6801 15.9811 14.3583L17.1233 13.386C16.7293 12.9231 16.4948 12.3846 16.4319 11.8307L14.9415 11.9998ZM3.22281 16.25C2.56777 16.25 2.10443 15.926 1.89056 15.5492C1.68409 15.1854 1.68714 14.748 2.01889 14.3583L0.876678 13.386C0.111406 14.285 0.0877731 15.4116 0.585985 16.2895C1.07679 17.1544 2.04947 17.75 3.22281 17.75V16.25ZM14.7772 17.75C15.9505 17.75 16.9232 17.1544 17.414 16.2895C17.9122 15.4116 17.8886 14.285 17.1233 13.386L15.9811 14.3583C16.3129 14.748 16.3159 15.1854 16.1094 15.5492C15.8956 15.926 15.4322 16.25 14.7772 16.25V17.75ZM12.0199 3.37366V3.26995H10.5199V3.37366H12.0199ZM15.9848 7.89061C15.7055 5.43026 13.8806 3.47476 11.5129 2.6641L11.027 4.08322C12.9441 4.73962 14.2913 6.27101 14.4943 8.05977L15.9848 7.89061ZM7.48005 3.37366V3.26995H5.98005V3.37366H7.48005ZM3.50568 8.05977C3.7087 6.27101 5.05587 4.73962 6.973 4.08322L6.48711 2.6641C4.11944 3.47476 2.29449 5.43026 2.01525 7.89061L3.50568 8.05977ZM9 1.75C9.83944 1.75 10.5199 2.4305 10.5199 3.26995H12.0199C12.0199 1.60208 10.6679 0.25 9 0.25V1.75ZM9 0.25C7.33213 0.25 5.98005 1.60208 5.98005 3.26995H7.48005C7.48005 2.4305 8.16056 1.75 9 1.75V0.25ZM11.2977 18.7368C10.975 19.5979 10.0846 20.25 9 20.25V21.75C10.6855 21.75 12.1516 20.7325 12.7023 19.2632L11.2977 18.7368ZM9 20.25C7.91542 20.25 7.02502 19.5979 6.7023 18.7368L5.2977 19.2632C5.84835 20.7325 7.31452 21.75 9 21.75V20.25Z" fill="#707B81"/>
</svg>
