<svg width="24" height="24" viewBox="0 0 24 24" fill="none" xmlns="http://www.w3.org/2000/svg">
<path fill-rule="evenodd" clip-rule="evenodd" d="M7.38566 15.6959C6.19864 16.2895 5.75 16.9706 5.75 17.5C5.75 18.0294 6.19864 18.7105 7.38566 19.3041C8.52782 19.8751 10.1582 20.25 12 20.25C13.8418 20.25 15.4722 19.8751 16.6143 19.3041C17.8014 18.7105 18.25 18.0294 18.25 17.5C18.25 16.9706 17.8014 16.2895 16.6143 15.6959C15.4722 15.1249 13.8418 14.75 12 14.75C10.1582 14.75 8.52782 15.1249 7.38566 15.6959ZM6.71484 14.3543C8.10618 13.6586 9.97582 13.25 12 13.25C14.0242 13.25 15.8938 13.6586 17.2852 14.3543C18.6316 15.0275 19.75 16.0964 19.75 17.5C19.75 18.9036 18.6316 19.9725 17.2852 20.6457C15.8938 21.3414 14.0242 21.75 12 21.75C9.97582 21.75 8.10618 21.3414 6.71484 20.6457C5.36836 19.9725 4.25 18.9036 4.25 17.5C4.25 16.0964 5.36836 15.0275 6.71484 14.3543Z" fill="#707B81"/>
<path fill-rule="evenodd" clip-rule="evenodd" d="M12 3.75C10.2051 3.75 8.75 5.20507 8.75 7C8.75 8.79493 10.2051 10.25 12 10.25C13.7949 10.25 15.25 8.79493 15.25 7C15.25 5.20507 13.7949 3.75 12 3.75ZM7.25 7C7.25 4.37665 9.37665 2.25 12 2.25C14.6234 2.25 16.75 4.37665 16.75 7C16.75 9.62335 14.6234 11.75 12 11.75C9.37665 11.75 7.25 9.62335 7.25 7Z" fill="#707B81"/>
</svg>
