<svg width="24" height="24" viewBox="0 0 24 24" fill="none" xmlns="http://www.w3.org/2000/svg">
<path fill-rule="evenodd" clip-rule="evenodd" d="M14.058 4.65285C12.8608 3.67333 11.1392 3.67333 9.94198 4.65285L3.7673 9.70486C3.29799 10.0888 3.46708 10.8437 4.05535 10.9907C5.05131 11.2397 5.75 12.1346 5.75 13.1612V18C5.75 19.7949 7.20507 21.25 9 21.25H15C16.7949 21.25 18.25 19.7949 18.25 18V13.1612C18.25 12.1346 18.9487 11.2397 19.9446 10.9907C20.5329 10.8437 20.702 10.0888 20.2327 9.70486L14.058 4.65285ZM8.99212 3.49192C10.7419 2.06031 13.2581 2.06031 15.0079 3.49192L21.1826 8.54392C22.6067 9.70914 22.0936 11.9997 20.3085 12.4459C19.9802 12.528 19.75 12.8229 19.75 13.1612V18C19.75 20.6233 17.6234 22.75 15 22.75H9C6.37665 22.75 4.25 20.6233 4.25 18V13.1612C4.25 12.8229 4.01976 12.528 3.69155 12.4459C1.9064 11.9997 1.39329 9.70914 2.81744 8.54392L8.99212 3.49192Z" fill="#707B81"/>
<path fill-rule="evenodd" clip-rule="evenodd" d="M12 14.75C11.3096 14.75 10.75 15.3096 10.75 16C10.75 16.6904 11.3096 17.25 12 17.25C12.6904 17.25 13.25 16.6904 13.25 16C13.25 15.3096 12.6904 14.75 12 14.75ZM9.25 16C9.25 14.4812 10.4812 13.25 12 13.25C13.5188 13.25 14.75 14.4812 14.75 16C14.75 17.5188 13.5188 18.75 12 18.75C10.4812 18.75 9.25 17.5188 9.25 16Z" fill="#707B81"/>
</svg>
