<svg width="44" height="44" viewBox="0 0 44 44" fill="none" xmlns="http://www.w3.org/2000/svg">
<rect width="44" height="44" rx="22" fill="white"/>
<path fill-rule="evenodd" clip-rule="evenodd" d="M17 20C18.3807 20 19.5 18.8807 19.5 17.5C19.5 16.1193 18.3807 15 17 15C15.6193 15 14.5 16.1193 14.5 17.5C14.5 18.8807 15.6193 20 17 20ZM27 29C28.3807 29 29.5 27.8807 29.5 26.5C29.5 25.1193 28.3807 24 27 24C25.6193 24 24.5 25.1193 24.5 26.5C24.5 27.8807 25.6193 29 27 29ZM19.5 26.5C19.5 27.8807 18.3807 29 17 29C15.6193 29 14.5 27.8807 14.5 26.5C14.5 25.1193 15.6193 24 17 24C18.3807 24 19.5 25.1193 19.5 26.5ZM27 20C28.3807 20 29.5 18.8807 29.5 17.5C29.5 16.1193 28.3807 15 27 15C25.6193 15 24.5 16.1193 24.5 17.5C24.5 18.8807 25.6193 20 27 20Z" fill="#1A2530"/>
</svg>
